<svg xmlns="http://www.w3.org/2000/svg" xmlns:xlink="http://www.w3.org/1999/xlink" width="500" zoomAndPan="magnify" viewBox="0 0 375 374.999991" height="500" preserveAspectRatio="xMidYMid meet" version="1.0"><defs><g/><clipPath id="7eeeeb0a96"><path d="M 11 135 L 121 135 L 121 243.019531 L 11 243.019531 Z M 11 135 " clip-rule="nonzero"/></clipPath><clipPath id="ebb3bf8a37"><path d="M 81 102.769531 L 102 102.769531 L 102 124 L 81 124 Z M 81 102.769531 " clip-rule="nonzero"/></clipPath></defs><g clip-path="url(#7eeeeb0a96)"><path fill="#1082cf" d="M 72.03125 243.019531 C 70.125 243.019531 68.207031 242.78125 66.269531 242.296875 C 60.421875 240.832031 54.726562 237.582031 49.097656 233.394531 C 53.667969 233.902344 58.390625 234.070312 63.101562 234.070312 C 65.351562 234.070312 67.601562 234.03125 69.832031 233.972656 C 79.109375 233.523438 88.027344 232.730469 95.59375 230.339844 C 95.515625 230.421875 95.441406 230.503906 95.363281 230.585938 C 87.65625 238.835938 79.960938 243.019531 72.03125 243.019531 M 15.453125 196.847656 C 14.949219 195.832031 14.488281 194.8125 14.070312 193.777344 C 9.652344 182.878906 11.980469 172.203125 21.539062 161.96875 C 23.445312 159.917969 25.652344 157.882812 28.117188 155.910156 C 20.316406 169.78125 16.042969 184.695312 15.453125 196.847656 M 115.898438 195.007812 C 114.878906 181.6875 110.019531 164.90625 101.101562 150.144531 C 97.609375 144.363281 93.71875 139.457031 89.558594 135.585938 C 98.375 136.339844 105.808594 139.179688 111.003906 144.117188 C 120.5625 152.804688 122.890625 168.269531 118.472656 186.246094 C 117.742188 189.21875 116.875 192.148438 115.898438 195.007812 " fill-opacity="1" fill-rule="nonzero"/></g><path fill="#e91348" d="M 49.097656 233.394531 C 43.234375 232.742188 37.617188 231.535156 32.589844 229.40625 C 21.773438 224.828125 15.882812 215.628906 15.417969 201.625 C 15.359375 200.089844 15.371094 198.492188 15.453125 196.847656 C 20.257812 206.53125 28.726562 215.347656 37.175781 223.378906 C 41.144531 226.984375 45.105469 230.425781 49.097656 233.394531 M 95.59375 230.339844 C 103.304688 221.945312 111.011719 209.304688 115.898438 195.007812 C 115.976562 195.976562 116.027344 196.925781 116.0625 197.859375 C 116.527344 211.867188 112.59375 221.429688 103.757812 226.742188 C 101.28125 228.234375 98.539062 229.40625 95.59375 230.339844 M 28.117188 155.910156 C 28.703125 154.867188 29.308594 153.832031 29.933594 152.804688 C 40.015625 136.230469 53.207031 125.976562 66.070312 125.640625 C 66.480469 125.621094 66.890625 125.613281 67.296875 125.613281 C 75.066406 125.613281 82.679688 129.183594 89.558594 135.585938 C 87.953125 135.445312 86.300781 135.375 84.609375 135.375 C 78.894531 135.375 72.714844 136.164062 66.269531 137.730469 C 51.28125 141.375 37.730469 148.203125 28.117188 155.910156 " fill-opacity="1" fill-rule="nonzero"/><path fill="#1b66b9" d="M 63.101562 234.070312 C 58.390625 234.070312 53.667969 233.902344 49.097656 233.394531 C 45.105469 230.425781 41.144531 226.984375 37.175781 223.378906 C 28.726562 215.347656 20.257812 206.53125 15.453125 196.847656 C 16.042969 184.695312 20.316406 169.78125 28.117188 155.910156 C 37.730469 148.203125 51.28125 141.375 66.269531 137.730469 C 72.714844 136.164062 78.894531 135.375 84.609375 135.375 C 86.300781 135.375 87.953125 135.445312 89.558594 135.585938 C 93.71875 139.457031 97.609375 144.363281 101.101562 150.144531 C 110.019531 164.90625 114.878906 181.6875 115.898438 195.007812 C 111.011719 209.304688 103.304688 221.945312 95.59375 230.339844 C 88.027344 232.730469 79.109375 233.523438 69.832031 233.972656 C 67.601562 234.03125 65.351562 234.070312 63.101562 234.070312 " fill-opacity="1" fill-rule="nonzero"/><g clip-path="url(#ebb3bf8a37)"><path fill="#1082cf" d="M 91.449219 123.484375 C 85.738281 123.484375 81.105469 118.847656 81.105469 113.125 C 81.105469 107.40625 85.738281 102.769531 91.449219 102.769531 C 97.164062 102.769531 101.792969 107.40625 101.792969 113.125 C 101.792969 118.847656 97.164062 123.484375 91.449219 123.484375 " fill-opacity="1" fill-rule="nonzero"/></g><path fill="#e91348" d="M 112.136719 139.199219 C 109.28125 139.199219 106.964844 136.882812 106.964844 134.019531 C 106.964844 131.160156 109.28125 128.84375 112.136719 128.84375 C 114.992188 128.84375 117.308594 131.160156 117.308594 134.019531 C 117.308594 136.882812 114.992188 139.199219 112.136719 139.199219 " fill-opacity="1" fill-rule="nonzero"/><path fill="#ffffff" d="M 97.898438 177.222656 L 54.109375 151.902344 C 48.914062 148.898438 42.421875 152.65625 42.421875 158.664062 L 42.421875 209.300781 C 42.421875 215.308594 48.914062 219.066406 54.109375 216.0625 L 97.898438 190.742188 C 103.09375 187.738281 103.09375 180.226562 97.898438 177.222656 " fill-opacity="1" fill-rule="nonzero"/><g fill="#ffffff" fill-opacity="1"><g transform="translate(136.93772, 201.470332)"><g><path d="M 3.1875 -31.8125 L 12.1875 -31.8125 L 12.1875 0 L 3.1875 0 Z M 3.1875 -31.8125 "/></g></g></g><g fill="#ffffff" fill-opacity="1"><g transform="translate(151.431636, 201.470332)"><g><path d="M 3.1875 -31.8125 L 12.1875 -31.8125 L 12.1875 -7.140625 L 27.359375 -7.140625 L 27.359375 0 L 3.1875 0 Z M 3.1875 -31.8125 "/></g></g></g><g fill="#ffffff" fill-opacity="1"><g transform="translate(178.238944, 201.470332)"><g><path d="M 3.1875 -31.8125 L 12.1875 -31.8125 L 12.1875 -7.140625 L 27.359375 -7.140625 L 27.359375 0 L 3.1875 0 Z M 3.1875 -31.8125 "/></g></g></g><g fill="#ffffff" fill-opacity="1"><g transform="translate(205.046253, 201.470332)"><g><path d="M 17.859375 0.640625 C 13.128906 0.640625 9.453125 -0.644531 6.828125 -3.21875 C 4.210938 -5.800781 2.90625 -9.457031 2.90625 -14.1875 L 2.90625 -31.8125 L 11.90625 -31.8125 L 11.90625 -14.453125 C 11.90625 -9.359375 13.921875 -6.8125 17.953125 -6.8125 C 21.953125 -6.8125 23.953125 -9.359375 23.953125 -14.453125 L 23.953125 -31.8125 L 32.8125 -31.8125 L 32.8125 -14.1875 C 32.8125 -9.457031 31.5 -5.800781 28.875 -3.21875 C 26.257812 -0.644531 22.585938 0.640625 17.859375 0.640625 Z M 17.859375 0.640625 "/></g></g></g><g fill="#ffffff" fill-opacity="1"><g transform="translate(239.850453, 201.470332)"><g><path d="M 31.90625 0 L 31.8125 -16.859375 L 23.640625 -3.140625 L 19.640625 -3.140625 L 11.5 -16.40625 L 11.5 0 L 3.1875 0 L 3.1875 -31.8125 L 10.59375 -31.8125 L 21.765625 -13.453125 L 32.6875 -31.8125 L 40.09375 -31.8125 L 40.1875 0 Z M 31.90625 0 "/></g></g></g><g fill="#ffffff" fill-opacity="1"><g transform="translate(282.288069, 201.470332)"><g><path d="M 3.1875 -31.8125 L 12.1875 -31.8125 L 12.1875 0 L 3.1875 0 Z M 3.1875 -31.8125 "/></g></g></g><g fill="#ffffff" fill-opacity="1"><g transform="translate(296.781991, 201.470332)"><g><path d="M 24.5 -6.1875 L 11.046875 -6.1875 L 8.546875 0 L -0.640625 0 L 13.40625 -31.8125 L 22.265625 -31.8125 L 36.359375 0 L 27 0 Z M 21.859375 -12.8125 L 17.765625 -23 L 13.6875 -12.8125 Z M 21.859375 -12.8125 "/></g></g></g><g fill="#ffffff" fill-opacity="1"><g transform="translate(331.586197, 201.470332)"><g><path d="M 3.1875 -31.8125 L 18.234375 -31.8125 C 21.710938 -31.8125 24.800781 -31.160156 27.5 -29.859375 C 30.195312 -28.554688 32.285156 -26.707031 33.765625 -24.3125 C 35.253906 -21.925781 36 -19.125 36 -15.90625 C 36 -12.695312 35.253906 -9.894531 33.765625 -7.5 C 32.285156 -5.101562 30.195312 -3.253906 27.5 -1.953125 C 24.800781 -0.648438 21.710938 0 18.234375 0 L 3.1875 0 Z M 17.859375 -7.1875 C 20.585938 -7.1875 22.773438 -7.957031 24.421875 -9.5 C 26.078125 -11.039062 26.90625 -13.175781 26.90625 -15.90625 C 26.90625 -18.632812 26.078125 -20.769531 24.421875 -22.3125 C 22.773438 -23.863281 20.585938 -24.640625 17.859375 -24.640625 L 12.1875 -24.640625 L 12.1875 -7.1875 Z M 17.859375 -7.1875 "/></g></g></g></svg>