<svg xmlns="http://www.w3.org/2000/svg" xmlns:xlink="http://www.w3.org/1999/xlink" width="500" zoomAndPan="magnify" viewBox="0 0 375 374.999991" height="500" preserveAspectRatio="xMidYMid meet" version="1.0"><defs><g/><clipPath id="733115a2dc"><path d="M 89 159 L 149 159 L 149 218.488281 L 89 218.488281 Z M 89 159 " clip-rule="nonzero"/></clipPath><clipPath id="85a76a941c"><path d="M 126 141.988281 L 139 141.988281 L 139 154 L 126 154 Z M 126 141.988281 " clip-rule="nonzero"/></clipPath></defs><g clip-path="url(#733115a2dc)"><path fill="#1082cf" d="M 121.921875 218.488281 C 120.886719 218.488281 119.847656 218.355469 118.792969 218.09375 C 115.617188 217.292969 112.527344 215.519531 109.46875 213.238281 C 111.953125 213.511719 114.515625 213.605469 117.074219 213.605469 C 118.296875 213.605469 119.515625 213.582031 120.726562 213.550781 C 125.765625 213.304688 130.609375 212.875 134.71875 211.570312 C 134.675781 211.613281 134.636719 211.660156 134.59375 211.703125 C 130.40625 216.207031 126.230469 218.488281 121.921875 218.488281 M 91.199219 193.300781 C 90.925781 192.75 90.675781 192.191406 90.445312 191.625 C 88.046875 185.683594 89.3125 179.859375 94.503906 174.277344 C 95.539062 173.15625 96.738281 172.046875 98.074219 170.972656 C 93.839844 178.539062 91.519531 186.675781 91.199219 193.300781 M 145.746094 192.296875 C 145.191406 185.03125 142.550781 175.878906 137.707031 167.828125 C 135.8125 164.675781 133.699219 161.996094 131.441406 159.886719 C 136.226562 160.296875 140.265625 161.847656 143.085938 164.539062 C 148.277344 169.277344 149.539062 177.714844 147.140625 187.519531 C 146.746094 189.140625 146.273438 190.738281 145.746094 192.296875 " fill-opacity="1" fill-rule="nonzero"/></g><path fill="#e91348" d="M 109.46875 213.238281 C 106.285156 212.882812 103.234375 212.222656 100.503906 211.0625 C 94.628906 208.5625 91.429688 203.546875 91.179688 195.90625 C 91.148438 195.070312 91.15625 194.199219 91.199219 193.300781 C 93.808594 198.585938 98.40625 203.394531 102.996094 207.773438 C 105.148438 209.742188 107.300781 211.617188 109.46875 213.238281 M 134.71875 211.570312 C 138.90625 206.992188 143.089844 200.097656 145.746094 192.296875 C 145.785156 192.828125 145.816406 193.34375 145.832031 193.855469 C 146.085938 201.492188 143.949219 206.710938 139.152344 209.609375 C 137.804688 210.421875 136.316406 211.0625 134.71875 211.570312 M 98.074219 170.972656 C 98.394531 170.402344 98.722656 169.839844 99.0625 169.277344 C 104.539062 160.238281 111.699219 154.644531 118.6875 154.460938 C 118.910156 154.449219 119.132812 154.445312 119.351562 154.445312 C 123.570312 154.445312 127.703125 156.394531 131.441406 159.886719 C 130.566406 159.808594 129.671875 159.773438 128.753906 159.773438 C 125.648438 159.773438 122.292969 160.199219 118.792969 161.054688 C 110.65625 163.042969 103.296875 166.769531 98.074219 170.972656 " fill-opacity="1" fill-rule="nonzero"/><path fill="#1b66b9" d="M 117.074219 213.605469 C 114.515625 213.605469 111.953125 213.511719 109.46875 213.238281 C 107.300781 211.617188 105.148438 209.742188 102.996094 207.773438 C 98.40625 203.394531 93.808594 198.585938 91.199219 193.300781 C 91.519531 186.675781 93.839844 178.539062 98.074219 170.972656 C 103.296875 166.769531 110.65625 163.042969 118.792969 161.054688 C 122.292969 160.199219 125.648438 159.773438 128.753906 159.773438 C 129.671875 159.773438 130.566406 159.808594 131.441406 159.886719 C 133.699219 161.996094 135.8125 164.675781 137.707031 167.828125 C 142.550781 175.878906 145.191406 185.03125 145.746094 192.296875 C 143.089844 200.097656 138.90625 206.992188 134.71875 211.570312 C 130.609375 212.875 125.765625 213.304688 120.726562 213.550781 C 119.515625 213.582031 118.296875 213.605469 117.074219 213.605469 " fill-opacity="1" fill-rule="nonzero"/><g clip-path="url(#85a76a941c)"><path fill="#1082cf" d="M 132.46875 153.285156 C 129.367188 153.285156 126.851562 150.757812 126.851562 147.636719 C 126.851562 144.515625 129.367188 141.984375 132.46875 141.984375 C 135.570312 141.984375 138.085938 144.515625 138.085938 147.636719 C 138.085938 150.757812 135.570312 153.285156 132.46875 153.285156 " fill-opacity="1" fill-rule="nonzero"/></g><path fill="#e91348" d="M 143.699219 161.859375 C 142.148438 161.859375 140.894531 160.59375 140.894531 159.03125 C 140.894531 157.472656 142.148438 156.207031 143.699219 156.207031 C 145.25 156.207031 146.507812 157.472656 146.507812 159.03125 C 146.507812 160.59375 145.25 161.859375 143.699219 161.859375 " fill-opacity="1" fill-rule="nonzero"/><path fill="#ffffff" d="M 135.96875 182.597656 L 112.191406 168.789062 C 109.371094 167.148438 105.84375 169.199219 105.84375 172.472656 L 105.84375 200.09375 C 105.84375 203.371094 109.371094 205.421875 112.191406 203.78125 L 135.96875 189.972656 C 138.789062 188.332031 138.789062 184.234375 135.96875 182.597656 " fill-opacity="1" fill-rule="nonzero"/><g fill="#ffffff" fill-opacity="1"><g transform="translate(157.381869, 195.749987)"><g><path d="M 1.734375 -17.328125 L 6.640625 -17.328125 L 6.640625 0 L 1.734375 0 Z M 1.734375 -17.328125 "/></g></g></g><g fill="#ffffff" fill-opacity="1"><g transform="translate(165.276869, 195.749987)"><g><path d="M 1.734375 -17.328125 L 6.640625 -17.328125 L 6.640625 -3.890625 L 14.90625 -3.890625 L 14.90625 0 L 1.734375 0 Z M 1.734375 -17.328125 "/></g></g></g><g fill="#ffffff" fill-opacity="1"><g transform="translate(179.879115, 195.749987)"><g><path d="M 1.734375 -17.328125 L 6.640625 -17.328125 L 6.640625 -3.890625 L 14.90625 -3.890625 L 14.90625 0 L 1.734375 0 Z M 1.734375 -17.328125 "/></g></g></g><g fill="#ffffff" fill-opacity="1"><g transform="translate(194.481361, 195.749987)"><g><path d="M 9.734375 0.34375 C 7.148438 0.34375 5.144531 -0.351562 3.71875 -1.75 C 2.289062 -3.15625 1.578125 -5.144531 1.578125 -7.71875 L 1.578125 -17.328125 L 6.484375 -17.328125 L 6.484375 -7.875 C 6.484375 -5.101562 7.582031 -3.71875 9.78125 -3.71875 C 11.957031 -3.71875 13.046875 -5.101562 13.046875 -7.875 L 13.046875 -17.328125 L 17.875 -17.328125 L 17.875 -7.71875 C 17.875 -5.144531 17.160156 -3.15625 15.734375 -1.75 C 14.304688 -0.351562 12.304688 0.34375 9.734375 0.34375 Z M 9.734375 0.34375 "/></g></g></g><g fill="#ffffff" fill-opacity="1"><g transform="translate(213.439604, 195.749987)"><g><path d="M 17.375 0 L 17.328125 -9.1875 L 12.875 -1.703125 L 10.6875 -1.703125 L 6.265625 -8.9375 L 6.265625 0 L 1.734375 0 L 1.734375 -17.328125 L 5.765625 -17.328125 L 11.859375 -7.328125 L 17.796875 -17.328125 L 21.828125 -17.328125 L 21.875 0 Z M 17.375 0 "/></g></g></g><g fill="#ffffff" fill-opacity="1"><g transform="translate(236.555856, 195.749987)"><g><path d="M 1.734375 -17.328125 L 6.640625 -17.328125 L 6.640625 0 L 1.734375 0 Z M 1.734375 -17.328125 "/></g></g></g><g fill="#ffffff" fill-opacity="1"><g transform="translate(244.45086, 195.749987)"><g><path d="M 13.34375 -3.359375 L 6.015625 -3.359375 L 4.65625 0 L -0.34375 0 L 7.296875 -17.328125 L 12.125 -17.328125 L 19.796875 0 L 14.703125 0 Z M 11.90625 -6.984375 L 9.671875 -12.53125 L 7.453125 -6.984375 Z M 11.90625 -6.984375 "/></g></g></g><g fill="#ffffff" fill-opacity="1"><g transform="translate(263.409107, 195.749987)"><g><path d="M 1.734375 -17.328125 L 9.921875 -17.328125 C 11.816406 -17.328125 13.5 -16.972656 14.96875 -16.265625 C 16.4375 -15.554688 17.578125 -14.546875 18.390625 -13.234375 C 19.203125 -11.929688 19.609375 -10.40625 19.609375 -8.65625 C 19.609375 -6.90625 19.203125 -5.378906 18.390625 -4.078125 C 17.578125 -2.773438 16.4375 -1.769531 14.96875 -1.0625 C 13.5 -0.351562 11.816406 0 9.921875 0 L 1.734375 0 Z M 9.734375 -3.90625 C 11.210938 -3.90625 12.398438 -4.328125 13.296875 -5.171875 C 14.203125 -6.015625 14.65625 -7.175781 14.65625 -8.65625 C 14.65625 -10.144531 14.203125 -11.3125 13.296875 -12.15625 C 12.398438 -13 11.210938 -13.421875 9.734375 -13.421875 L 6.640625 -13.421875 L 6.640625 -3.90625 Z M 9.734375 -3.90625 "/></g></g></g></svg>